<svg id="Capa_1" data-name="Capa 1" xmlns="http://www.w3.org/2000/svg" viewBox="0 0 144.99 27.67"><path d="M15.84,11.38A7.17,7.17,0,0,1,4.4,15L2,13.06s6.28,26,13.83,26,13.83-26,13.83-26L27,15.16A7,7,0,0,1,15.84,11.38Z" transform="translate(-2.01 -11.38)" style="fill:#ed2b00"/><path d="M48.62,21.61A4.64,4.64,0,0,1,51.92,23l2.43-2.43a8.1,8.1,0,1,0,0,11.45l-2.43-2.43a4.66,4.66,0,1,1-3.3-7.95Z" transform="translate(-2.01 -11.38)" style="fill:#ed2b00"/><path d="M105.62,30.92a4.66,4.66,0,1,1,3.29-8l2.44-2.43a8.1,8.1,0,1,0,0,11.45l-2.44-2.43A4.59,4.59,0,0,1,105.62,30.92Z" transform="translate(-2.01 -11.38)" style="fill:#ed2b00"/><polygon points="137.06 19.32 137.06 6.95 133.62 6.95 133.62 22.76 144.99 22.76 144.99 19.32 137.06 19.32" style="fill:#ed2b00"/><polygon points="58.06 22.78 70.37 22.78 70.37 19.34 61.5 19.34 61.5 16.58 68.99 16.58 68.99 13.14 61.5 13.14 61.5 10.38 70.37 10.38 70.37 6.94 58.06 6.94 58.06 22.78" style="fill:#ed2b00"/><polygon points="87.43 17.55 80.14 6.94 76.49 6.94 76.49 22.81 79.93 22.81 79.93 12.71 86.87 22.82 90.87 22.82 90.87 6.95 87.43 6.95 87.43 17.55" style="fill:#ed2b00"/><path d="M119.17,18.32l-4.09,15.87h3.56l.9-3.5H126l.9,3.5h3.56l-4.1-15.87Zm1.26,8.93,1.41-5.49h1.85l1.41,5.49Z" transform="translate(-2.01 -11.38)" style="fill:#ed2b00"/></svg>