<?xml version="1.0" encoding="utf-8"?>
<!-- Generator: Adobe Illustrator 24.1.0, SVG Export Plug-In . SVG Version: 6.00 Build 0)  -->
<svg version="1.1" id="Capa_1" xmlns="http://www.w3.org/2000/svg" xmlns:xlink="http://www.w3.org/1999/xlink" x="0px" y="0px"
	 viewBox="0 0 150 50" style="enable-background:new 0 0 150 50;" xml:space="preserve">
<style type="text/css">
	.st0{fill:#FEDD00;}
</style>
<g>
	<path class="st0" d="M44.1,22.5c-0.6-0.4-1.3-0.5-1.9-0.5c0,0-5.3,0-5.4,0c-0.4,0-0.7,0.1-1.1,0.2c-0.8,0.2-1.4,0.6-2.1,1
		c-1.4,1-2.4,2.5-3,4.1c-0.4,1-0.6,2.1-0.8,3.2c-0.3,1.4-0.3,3,0.3,4.4c0.6,1.2,1.7,2.1,3,2.3c0.9,0.1,5.9,0,6,0
		c0.6,0,1.1-0.1,1.7-0.4c0.7-0.3,1.4-0.8,2-1.3c1.3-1.2,2.2-2.7,2.7-4.4c0.2-0.9,0.4-1.7,0.6-2.6c0.3-1.5,0.2-3.2-0.6-4.6
		C45.1,23.3,44.6,22.8,44.1,22.5z M40.8,28.2c-0.1,0.8-0.3,1.5-0.5,2.3c-0.3,1.5-1.1,3-2.1,4.2c-0.5,0.6-1,1.1-1.7,1.5
		c-0.3-0.3-0.6-0.7-0.9-1.1c-0.7-1.3-0.8-2.8-0.6-4.2c0.1-0.8,0.3-1.5,0.5-2.3c0.3-1.6,1.1-3.1,2.2-4.3c0.5-0.5,1-1,1.6-1.4
		c0.3,0.3,0.6,0.7,0.9,1.1C40.9,25.3,41,26.8,40.8,28.2z"/>
	<path class="st0" d="M105.4,22.5c-0.4-0.2-0.9-0.4-1.3-0.5c-1.1-0.2-6.7-0.2-7.9,0c-0.5,0.1-1.5,0.7-1.5,0.7S94,22.1,93.6,22
		c-1.1-0.2-6.7-0.2-7.9,0c-1,0.2-2,0.7-2.8,1.3C82.1,24.1,81.4,25,81,26c-0.2,0.6-0.4,1.3-0.5,2c-0.1,0.6-1.9,9.1-1.9,9.1h5.4
		c0,0,1.6-7.7,1.9-8.7c0.2-0.8,0.3-1.7,0.6-2.5c0.6-1.4,1.8-2.7,3.2-3.3c0.9,0.6,1.6,1.5,1.7,2.6c0.1,0.6,0,1.2-0.1,1.7
		c-0.1,0.3-2,9.5-2.2,10.2c0,0,5.4,0,5.4,0c0.4-1.9,2-9.3,2-9.5c0-0.2,0.1-0.4,0.1-0.6c0.1-0.4,0.2-0.7,0.3-1.1
		c0.6-1.4,1.8-2.7,3.2-3.3c0.9,0.6,1.6,1.5,1.7,2.6c0.1,0.9-0.1,1.7-0.3,2.5c-0.5,2.4-1.8,8.6-2,9.4c0,0,5.4,0,5.4,0
		c0.4-2,1.8-8.4,2-9.5c0.2-1,0.4-2.1,0-3.1C106.8,23.6,106.2,22.9,105.4,22.5z"/>
	<path class="st0" d="M54.6,29.6c0.1-0.5,3.8-14.8,4-15.9h-5.4C52.5,16.6,50,26.2,49.6,28c-0.1,0.5-0.2,1-0.3,1.5
		c-0.2,0.9-0.4,1.8-0.5,2.7c-0.1,1.4,0.1,3,1.1,4.2c0.4,0.5,0.9,0.9,1.5,1.2c0.3,0.1,0.6,0.2,0.9,0.2c1,0.1,3.3,0.1,3.4,0.1l0.2-0.8
		c-1.3-1-1.9-2.9-1.7-4.6C54.2,31.4,54.4,30.5,54.6,29.6z"/>
	<path class="st0" d="M71.8,22.7c-0.4,1.8-1.5,7.3-1.7,8.1c-0.2,0.9-0.3,1.9-0.7,2.7c-0.6,1.3-1.7,2.4-3,3c-0.8-0.5-1.5-1.3-1.7-2.4
		c-0.2-0.9,0-1.7,0.2-2.6c0.5-2.3,1.7-8.1,1.9-8.8c0,0-5.4,0-5.4,0c-0.4,1.9-1.7,7.9-1.9,9c-0.2,1.1-0.4,2.1,0.1,3.2
		c0.3,0.8,0.9,1.4,1.7,1.8c0.4,0.2,0.8,0.3,1.3,0.4c1.1,0.2,6.5,0.2,7.7,0c1-0.2,1.9-0.6,2.7-1.2c0.8-0.6,1.5-1.4,1.9-2.3
		c0.3-0.6,0.4-1.3,0.6-2l1.9-8.8C77.2,22.7,71.8,22.7,71.8,22.7z"/>
	<path class="st0" d="M25.4,13.5c-0.9-0.6-2-0.8-3.1-0.8c-1.6,0-7.1-0.1-8.3,0.1c-1.1,0.2-2.2,0.7-3.2,1.3c-2.1,1.4-3.8,3.5-4.8,5.8
		c-0.7,1.5-1,3.1-1.3,4.7c-0.3,1.4-0.7,2.8-0.8,4.2c-0.3,2.3,0,4.7,1.4,6.6c0.6,0.8,1.4,1.5,2.3,1.9c0.4,0.2,0.9,0.3,1.4,0.4
		c0.3,0,0.6,0.1,0.8,0.1c1.2,0.1,6.3,0.1,7.6,0c0.6,0,1.1-0.1,1.7-0.3c1.1-0.3,2.1-0.9,3.1-1.5c2.1-1.5,3.7-3.8,4.6-6.2
		c0.2-0.6,0.4-1.3,0.6-1.9c0,0-6.7,0-6.7,0c-0.8,3.7-3.3,7.4-6.8,9.1c-1.1-0.7-2-1.7-2.5-3c-0.9-2-0.8-4.2-0.4-6.3
		c0.3-1.5,0.6-3,1-4.5c0.4-2.1,1.2-4.2,2.6-6c1.1-1.5,2.6-2.8,4.3-3.6c0.6,0.3,1.1,0.8,1.5,1.3c1,1.3,1.5,2.9,1.7,4.5
		c0.1,0.9,0,1.7-0.1,2.6h6.7c0.3-2.1,0.1-4.4-1-6.3C27,14.8,26.3,14,25.4,13.5z"/>
	<path class="st0" d="M123.4,22.2c-0.2,0-0.4-0.1-0.7-0.1c-0.9,0-3.6,0-4,0l-0.1,0.3c0.8,0.3,1.5,0.9,2,1.7c0.7,1.3,0.8,2.8,0.6,4.2
		c-0.1,0.8-0.3,1.5-0.5,2.3c-0.3,1.6-1.1,3.1-2.2,4.3c-0.5,0.5-1,1-1.6,1.4c-0.9-0.8-1.4-2.1-1.5-3.4c-0.1-1.5,0.3-3,0.6-4.5
		c0,0,3.5-13.3,3.8-14.8h-5.4c-0.6,2.7-3.4,13.1-4,15.7c-0.3,1.6-0.7,3.2-0.2,4.8c0.5,1.7,1.8,3,3.6,3.1c0.1,0,5.5,0,5.5,0
		c0.5,0,1-0.1,1.5-0.2c0.9-0.3,1.8-0.8,2.5-1.5c1.5-1.3,2.4-3.2,2.8-5.1c0.3-1.5,0.7-3.1,0.4-4.6C126.3,24.1,125.2,22.5,123.4,22.2z
		"/>
	<path class="st0" d="M145.4,34.5c-0.5-1.3-0.5-2.7-0.2-4.1c0.1-0.5,1.3-6.3,1.8-8.5l-5.4,0c-0.5,2.4-1,4.8-1.5,7.2
		c-0.1,0.4-0.2,0.8-0.3,1.2c-0.2,0.6-0.3,1.3-0.6,1.9c-0.5,1.2-1.3,2.3-2.2,3.2c-0.3,0.3-0.6,0.5-1,0.8c-0.3-0.3-0.6-0.7-0.9-1.1
		c-0.7-1.3-0.8-2.8-0.6-4.2c0.1-0.8,0.3-1.5,0.5-2.3c0.3-1.6,1.1-3.1,2.2-4.3c0.8-0.9,1.8-1.7,2.9-2.1l0.1-0.3c-0.4,0-0.8,0-1.2,0
		c-1,0-2.1,0-3.1,0.1c-0.3,0-0.7,0.1-1,0.2c-0.7,0.2-1.3,0.5-1.8,0.9c-1.2,0.9-2.2,2.2-2.8,3.5c-0.5,1-0.7,2.1-0.9,3.2
		c-0.2,1.2-0.4,2.3-0.2,3.5c0.2,1.2,0.9,2.4,1.9,3.1c0.5,0.3,1.1,0.5,1.7,0.6c0.1,0,5.2,0.1,6.2,0c0.8-0.1,1.6-0.4,2.3-0.8
		c0.1,0.1,0.2,0.2,0.4,0.3c0.4,0.2,0.8,0.4,1.2,0.5c0.2,0,0.5,0.1,0.7,0.1c0.9,0.1,3,0,3.1,0l0.2-0.8
		C146.2,35.9,145.7,35.3,145.4,34.5z"/>
</g>
</svg>
