<svg id="Capa_1" data-name="Capa 1" xmlns="http://www.w3.org/2000/svg" viewBox="0 0 143.7 38.41"><path d="M88.69,17.58a10.5,10.5,0,0,0-7.34,10.28,10.6,10.6,0,0,0,7.34,10.27,17.49,17.49,0,0,0,11.82-.32V35.6a11.62,11.62,0,0,1-8.07-1.06c-2-1.22-3.18-3.91-3.18-6.68s1.22-5.47,3.18-6.69a11.19,11.19,0,0,1,8.07-1.06v-2.2A17.36,17.36,0,0,0,88.69,17.58Z" transform="translate(-3.3 -6)" style="fill:#263e8c"/><polygon points="102.92 13.78 102.92 32.62 110.34 32.62 110.34 10.44 102.92 13.78" style="fill:#263e8c"/><path d="M69.85,17.25a14.78,14.78,0,0,0-4.73-.81l-3.67,1.71V16L54,19.54V44.41h7.42V38.13a16.09,16.09,0,0,0,8.07-.24C79.55,35,79.88,20.52,69.85,17.25ZM66.59,33.89a6.83,6.83,0,0,1-5.14,1.71V19.46a9.47,9.47,0,0,1,4.65,1.38C69.69,23.13,70.66,30.39,66.59,33.89Z" transform="translate(-3.3 -6)" style="fill:#263e8c"/><path d="M111.69,7.88a6.68,6.68,0,0,0-5.47,3.75c-1,2-.08,3.75,2,3.75a6.65,6.65,0,0,0,5.46-3.75C114.62,9.59,113.73,7.88,111.69,7.88Z" transform="translate(-3.3 -6)" style="fill:#263e8c"/><path d="M13.17,34.06,13,33.89a1.1,1.1,0,0,0-.32-.24,6.77,6.77,0,0,1-2-4.81V6.08L3.3,9.83V31.61h0C3.38,34.3,6.81,37.4,11,38.3a2.83,2.83,0,0,0,.48.08,16,16,0,0,0,9.55-1V35.2A8.23,8.23,0,0,1,13.17,34.06Z" transform="translate(-3.3 -6)" style="fill:#263e8c"/><path d="M127.43,28.75v-9.7h10.11l.08-2.77H127.43V6L120,9.67V31.45h0c.08,2.69,3.5,5.79,7.66,6.68a15.31,15.31,0,0,0,10-.89V35C132.08,36.91,127.43,33.73,127.43,28.75Z" transform="translate(-3.3 -6)" style="fill:#263e8c"/><path d="M47.83,29c.16-5.55.32-8.65-5.06-11.66C33.07,12,21.4,19.62,23.61,29.73s12.88,9,12.88,9L40,35.6c-4.08-.32-8.48-1.79-8.81-8.07-.41-7.26,5.87-8.24,5.87-8.24,6.53.49-.4,11.42,5,19.66L49,35S47.67,34,47.83,29Z" transform="translate(-3.3 -6)" style="fill:#263e8c"/><path d="M147,36.75a4.26,4.26,0,0,1-.16,1,3.16,3.16,0,0,1-.49.73,5.93,5.93,0,0,1-.74.49,2.58,2.58,0,0,1-1.79,0,1.88,1.88,0,0,1-.73-.49l-.49-.73a3.24,3.24,0,0,1-.17-.9,3.73,3.73,0,0,1,.17-1,2.49,2.49,0,0,1,.49-.73,4.4,4.4,0,0,1,.73-.49,2.67,2.67,0,0,1,.9-.17,3.11,3.11,0,0,1,.89.17,2.25,2.25,0,0,1,1.23,1.22A3,3,0,0,1,147,36.75Zm-.49,0a3,3,0,0,0-.16-.82,2.92,2.92,0,0,0-.41-.65,1.49,1.49,0,0,0-.57-.41,1.77,1.77,0,0,0-1.47,0,1.49,1.49,0,0,0-.57.41,1.8,1.8,0,0,0-.41.65,2.49,2.49,0,0,0-.16.82,2.4,2.4,0,0,0,.16.73,2.35,2.35,0,0,0,.33.65,1.33,1.33,0,0,0,.57.41,2.4,2.4,0,0,0,.73.16,2.46,2.46,0,0,0,.74-.16,1.39,1.39,0,0,0,.57-.41,2.63,2.63,0,0,0,.41-.57A1.58,1.58,0,0,0,146.51,36.75Zm-2.28,1.3h-.41V35.44h1a1.65,1.65,0,0,1,.73.16.64.64,0,0,1,.25.58.63.63,0,0,1-.17.48.8.8,0,0,1-.49.17l.74,1.14h-.49l-.65-1.14h-.41v1.22Zm.49-1.47H145c.08,0,.16,0,.16-.08s.09-.08.17-.08.08-.16.08-.24,0-.17-.08-.17-.08-.08-.17-.08-.08,0-.16-.08h-.65v.73Z" transform="translate(-3.3 -6)" style="fill:#263e8c"/></svg>