<svg id="Capa_1" data-name="Capa 1" xmlns="http://www.w3.org/2000/svg" viewBox="0 0 143.06 39.34"><polygon points="122.45 3.53 120.19 0.99 115.03 6.15 117.39 8.59 122.45 3.53" style="fill:#939"/><path d="M64.89,17.6c-1-.72-3.71-2-7.87,1.09a10.79,10.79,0,0,0-3.26,4.25V19H50.42V45.55h3.34V41.21c.09-1.63.18-3.53.36-5.52a26.33,26.33,0,0,1,.37-2.8c7.77-1.09,11.48-5.34,12.39-9C67.33,21.31,66.6,18.87,64.89,17.6ZM63.53,23c-.81,3.44-4.7,5.33-8.5,6.15.9-3.89,2.17-6.51,3.8-7.69A5.81,5.81,0,0,1,62,20.14a1.37,1.37,0,0,1,.91.27A2.36,2.36,0,0,1,63.53,23Z" transform="translate(-2.94 -6.3)" style="fill:#939"/><path d="M102.33,13.26A20.19,20.19,0,0,0,92.2,19.77a15.12,15.12,0,0,0-1,1.45v-3.8H87.86V33.16H91.2c0-.09.09-6.78,3.62-11.22a16.43,16.43,0,0,1,8.32-5.33Z" transform="translate(-2.94 -6.3)" style="fill:#939"/><path d="M143.56,17.6a5.08,5.08,0,0,0-5.06.09,11.3,11.3,0,0,0-4.07,4.16c-2.26,4.16-1.9,8.69,1,10.4a4,4,0,0,0,2.26.64c2.44,0,5.15-1.81,6.87-4.89C146.82,23.93,146.37,19.32,143.56,17.6Zm-1.89,8.78c-1.36,2.53-3.62,3.7-4.62,3.07s-1.17-3.17.18-5.7A7.41,7.41,0,0,1,140,21a2.46,2.46,0,0,1,1.26-.36,1.34,1.34,0,0,1,.64.18C142.93,21.22,143,23.84,141.67,26.38Z" transform="translate(-2.94 -6.3)" style="fill:#939"/><path d="M118.51,27.82a3,3,0,0,1-.27,1.18,1.71,1.71,0,0,1-1.81,1,1.54,1.54,0,0,1-1.62-1.08,5.43,5.43,0,0,1-.37-1.45V17c-.9,0-2.26.09-2.26.09-8,.81-11.84,5.06-12.66,8.86-.54,2.63.18,5,2,6.15.91.64,3.53,1.72,7.33-1.44a19.72,19.72,0,0,0,2.35-2.45c.36,2.26,1.9,5.16,5.24,5.16,4,0,5.43-3.35,5.43-5.7V17h-3.35Zm-11.84.27c-1.72,1.45-2.9,1.54-3.53,1.18a2.33,2.33,0,0,1-.54-2.44c.54-2.35,2.89-5,8.05-6A11.56,11.56,0,0,1,106.67,28.09Z" transform="translate(-2.94 -6.3)" style="fill:#939"/><path d="M68.77,26c-.54,2.63.19,5,2,6.15.91.64,3.53,1.72,7.33-1.44a11.61,11.61,0,0,0,2.26-2.45v4.8H83.7L83.79,17c-.91,0-2.26.09-2.26.09C73.39,18,69.68,22.31,68.77,26ZM76,28.09c-1.72,1.45-2.89,1.54-3.53,1.18a2.33,2.33,0,0,1-.54-2.44c.18-.82,1.45-4.71,8-6A12.2,12.2,0,0,1,76,28.09Z" transform="translate(-2.94 -6.3)" style="fill:#939"/><path d="M43.54,27.73a3,3,0,0,1-.27,1.18,1.71,1.71,0,0,1-1.81,1,1.54,1.54,0,0,1-1.62-1.08,5,5,0,0,1-.37-1.45V16.88c-.9,0-2.26.09-2.26.09-8,.81-11.84,5.06-12.66,8.86-.54,2.63.18,5,2,6.15.91.64,3.53,1.72,7.33-1.44a19.72,19.72,0,0,0,2.35-2.45c.36,2.26,1.9,5.16,5.24,5.16,4,0,5.43-3.35,5.43-5.7V7.93H43.54ZM31.79,28c-1.72,1.45-2.9,1.54-3.53,1.18a2.33,2.33,0,0,1-.54-2.44c.54-2.35,2.89-5,8.05-6A12,12,0,0,1,31.79,28Z" transform="translate(-2.94 -6.3)" style="fill:#939"/><path d="M22.38,6.3a112.12,112.12,0,0,1-2.53,12.12c-2.89,10.76-5.34,11-5.61,11s-2.62-.27-5.51-11A113.55,113.55,0,0,1,6.19,6.3l-3.25.54A102.68,102.68,0,0,0,5.56,19.41C8,28.73,10.81,33,14.24,33S20.48,28.64,23,19.41c1.63-6.24,2.54-12.3,2.63-12.57Z" transform="translate(-2.94 -6.3)" style="fill:#939"/><path d="M125.3,24.66a24.32,24.32,0,0,0,.81,6.51,22.81,22.81,0,0,1,.72,5.61c-.09,2.26-.81,3.88-2.08,4.79a4.09,4.09,0,0,1-2,.63h0l-.09,3.44h0c.28,0,7-.09,7.42-8.68a24.34,24.34,0,0,0-.81-6.52,22.2,22.2,0,0,1-.73-5.6c.09-2.26.82-3.89,2.08-4.8a4.12,4.12,0,0,1,2-.63h0l.09-3.44C132.62,16,125.75,16,125.3,24.66Z" transform="translate(-2.94 -6.3)" style="fill:#939"/></svg>